<svg width="50" height="55" viewBox="0 0 50 55" fill="none" xmlns="http://www.w3.org/2000/svg">
<g clip-path="url(#clip0_542_6437)">
<rect x="28.375" width="0.875" height="1" fill="#67554F"/>
<rect x="18.75" width="0.875" height="1" fill="#67554F"/>
<rect x="27.5" y="1" width="0.875" height="1" fill="#67554F"/>
<rect x="19.625" y="1" width="0.875" height="1" fill="#67554F"/>
<rect x="27.5" y="2" width="0.875" height="1" fill="#67554F"/>
<rect x="28.375" y="2" width="0.875" height="1" fill="#67554F"/>
<rect x="27.5" y="3" width="0.875" height="1" fill="#67554F"/>
<rect x="19.625" y="2" width="0.875" height="1" fill="#67554F"/>
<rect x="18.75" y="2" width="0.875" height="1" fill="#67554F"/>
<rect x="20.5" y="2" width="0.875" height="1" fill="#67554F"/>
<rect x="20.5" y="3" width="0.875" height="1" fill="#67554F"/>
<rect x="19.625" y="3" width="0.875" height="1" fill="#67554F"/>
<rect x="20.5" y="4" width="0.875" height="1" fill="#67554F"/>
<rect x="26.625" y="3" width="0.875" height="1" fill="#67554F"/>
<rect x="26.625" y="4" width="0.875" height="1" fill="#67554F"/>
<rect x="25.75" y="4" width="0.875" height="1" fill="#67554F"/>
<rect x="21.375" y="4" width="0.875" height="1" fill="#67554F"/>
<rect x="25.75" y="5" width="0.875" height="1" fill="#67554F"/>
<rect x="21.375" y="5" width="0.875" height="1" fill="#67554F"/>
<rect x="24.875" y="6" width="0.875" height="1" fill="#67554F"/>
<rect x="22.25" y="6" width="0.875" height="1" fill="#67554F"/>
<rect x="22.25" y="5" width="0.875" height="1" fill="#67554F"/>
<rect x="24.875" y="5" width="0.875" height="1" fill="#67554F"/>
<rect x="18.75" y="1" width="0.875" height="1" fill="#67554F"/>
<rect x="17.875" y="1" width="0.875" height="1" fill="#67554F"/>
<rect x="28.375" y="1" width="0.875" height="1" fill="#67554F"/>
<rect x="29.25" y="1" width="0.875" height="1" fill="#67554F"/>
<rect x="23.125" y="6" width="0.875" height="1" fill="#67554F"/>
<rect x="23.125" y="7" width="0.875" height="1" fill="#67554F"/>
<rect x="24" y="6" width="0.875" height="1" fill="#67554F"/>
<rect x="24" y="7" width="0.875" height="1" fill="#67554F"/>
<rect x="23.125" y="2" width="0.875" height="1" fill="#67554F"/>
<rect x="23.125" y="3" width="0.875" height="1" fill="#67554F"/>
<rect x="23.125" y="4" width="0.875" height="1" fill="#67554F"/>
<rect x="23.125" y="5" width="0.875" height="1" fill="#67554F"/>
<rect x="24" y="5" width="0.875" height="1" fill="#67554F"/>
<rect x="24" y="4" width="0.875" height="1" fill="#67554F"/>
<rect x="24" y="3" width="0.875" height="1" fill="#67554F"/>
<rect x="24" y="2" width="0.875" height="1" fill="#67554F"/>
<rect x="24" y="1" width="0.875" height="1" fill="#67554F"/>
<rect x="24" width="0.875" height="1" fill="#67554F"/>
<rect x="24.875" width="0.875" height="1" fill="#67554F"/>
<rect x="24.875" y="1" width="0.875" height="1" fill="#67554F"/>
<rect x="24.875" y="2" width="0.875" height="1" fill="#67554F"/>
<rect x="24.875" y="3" width="0.875" height="1" fill="#67554F"/>
<rect x="24.875" y="4" width="0.875" height="1" fill="#67554F"/>
<rect x="25.75" y="3" width="0.875" height="1" fill="#67554F"/>
<rect x="25.75" y="2" width="0.875" height="1" fill="#67554F"/>
<rect x="25.75" y="1" width="0.875" height="1" fill="#67554F"/>
<rect x="25.75" width="0.875" height="1" fill="#67554F"/>
<rect x="26.625" width="0.875" height="1" fill="#67554F"/>
<rect x="26.625" y="1" width="0.875" height="1" fill="#67554F"/>
<rect x="26.625" y="2" width="0.875" height="1" fill="#67554F"/>
<rect x="27.5" width="0.875" height="1" fill="#67554F"/>
<rect x="23.125" width="0.875" height="1" fill="#67554F"/>
<rect x="23.125" y="1" width="0.875" height="1" fill="#67554F"/>
<rect x="22.25" y="1" width="0.875" height="1" fill="#67554F"/>
<rect x="22.25" y="2" width="0.875" height="1" fill="#67554F"/>
<rect x="22.25" y="3" width="0.875" height="1" fill="#67554F"/>
<rect x="22.25" y="4" width="0.875" height="1" fill="#67554F"/>
<rect x="21.375" y="3" width="0.875" height="1" fill="#67554F"/>
<rect x="21.375" y="2" width="0.875" height="1" fill="#67554F"/>
<rect x="21.375" y="1" width="0.875" height="1" fill="#67554F"/>
<rect x="21.375" width="0.875" height="1" fill="#67554F"/>
<rect x="22.25" width="0.875" height="1" fill="#67554F"/>
<rect x="20.5" y="1" width="0.875" height="1" fill="#67554F"/>
<rect x="20.5" width="0.875" height="1" fill="#67554F"/>
<rect x="19.625" width="0.875" height="1" fill="#67554F"/>
<rect x="17.875" width="0.875" height="1" fill="#67554F"/>
<rect x="29.25" width="0.875" height="1" fill="#67554F"/>
</g>
<g clip-path="url(#clip1_542_6437)">
<path d="M41.67 51.6299H40V53.3099H41.67V51.6299Z" fill="#9C866A"/>
<path d="M38.3399 51.6299H36.6699V53.3099H38.3399V51.6299Z" fill="#EAC89D"/>
<path d="M21.67 51.6299H20V53.3099H21.67V51.6299Z" fill="#D8B283"/>
<path d="M16.67 51.6299H15V53.3099H16.67V51.6299Z" fill="#EAC699"/>
<path d="M43.3399 49.95H41.6699V51.6299H43.3399V49.95Z" fill="#947D5F"/>
<path d="M41.67 49.95H40V51.6299H41.67V49.95Z" fill="#DFBA8A"/>
<path d="M45.0001 46.5801H43.3301V48.2601H45.0001V46.5801Z" fill="#967F60"/>
<path d="M45.0001 44.8899H43.3301V46.5699H45.0001V44.8899Z" fill="#9E8462"/>
<path d="M48.3399 41.53H46.6699V43.21H48.3399V41.53Z" fill="#947D5F"/>
<path d="M48.3399 39.8401H46.6699V41.5201H48.3399V39.8401Z" fill="#967E60"/>
<path d="M9.99992 41.5301V39.8401H8.32992V41.5301V43.2101H6.66992V44.8901V46.5801H8.32992V48.2601H9.99992H11.6699V46.5801V44.8901V43.2101V41.5301H9.99992Z" fill="#D4E3F6"/>
<path d="M48.3399 38.1599H46.6699V39.8399H48.3399V38.1599Z" fill="#947D5F"/>
<path d="M6.66992 38.1599V39.8399H4.99992H3.32992V41.5299H1.66992V43.2099V44.8899V46.5799V48.2599H3.32992V46.5799H4.99992V44.8899H6.66992V43.2099H8.32992V41.5299V39.8399V38.1599H6.66992Z" fill="#E3EEFD"/>
<path d="M46.67 36.47H45V38.15H46.67V36.47Z" fill="#947D5F"/>
<path d="M35 38.1599V39.8399V41.5299H36.67V39.8399V38.1599H35Z" fill="#FDE1E0"/>
<path d="M31.6699 39.8399V41.5299H33.3299V39.8399V38.1599H31.6699V39.8399Z" fill="#FDE1E0"/>
<path d="M35.0001 36.47H33.3301V38.15H35.0001V36.47Z" fill="#FDE1E0"/>
<path d="M46.67 34.79H45V36.47H46.67V34.79Z" fill="#A78760"/>
<path d="M30.0001 34.79H28.3301V36.47H30.0001V34.79Z" fill="#EAD0B0"/>
<path d="M33.3399 29.74H31.6699V31.42H33.3399V29.74Z" fill="#EAD0B0"/>
<path d="M45.0001 38.16V36.47H43.3301H41.6701H40.0001V38.16H38.3301H36.6701V39.84V41.53V43.21H35.0001H33.3301H31.6701V41.53V39.84V38.16H33.3301V36.47H35.0001V34.79V33.11H33.3301V31.42H31.6701V29.74V28.05H30.0001V29.74V31.42V33.11V34.79V36.47H28.3301V38.16H26.6701H25.0001H23.3301H21.6701H20.0001V39.84H18.3301H16.6701H15.0001V41.53H13.3301V43.21V44.89H15.0001H16.6701V46.58H18.3301H20.0001H21.6701H23.3301V48.26H25.0001H26.6701H28.3301H30.0001H31.6701H33.3301H35.0001H36.6701H38.3301V46.58H40.0001H41.6701V44.89H43.3301H45.0001V43.21H46.6701V41.53V39.84V38.16H45.0001Z" fill="white"/>
<path d="M36.67 36.47H35V38.15H36.67V36.47Z" fill="white"/>
<path d="M46.6701 31.4201H45.0001V29.7401H43.3301V28.0501V26.3701H41.6701H40.0001V28.0501H38.3301V29.7401H40.0001V31.4201H41.6701V33.1101H43.3301V34.7901H45.0001H46.6701H48.3301V33.1101V31.4201H46.6701Z" fill="#C59E6E"/>
<path d="M16.67 28.05H15V29.74H13.33H11.67V31.42H10V33.11V34.79V36.47V38.16H11.67H13.33H15V36.47H16.67V34.79H18.33V33.11V31.42H20V29.74V28.05H18.33H16.67Z" fill="#C59E6E"/>
<path d="M18.3399 51.6299H16.6699V53.3099H18.3399V51.6299Z" fill="#E7C08D"/>
<path d="M8.33992 48.26H6.66992V49.94H8.33992V48.26Z" fill="#E7C08D"/>
<path d="M6.67 46.5798H5V48.2598H6.67V46.5798Z" fill="#E7C08D"/>
<path d="M41.6701 46.5799H40.0001H38.3301V48.2599H36.6701H35.0001H33.3301H31.6701H30.0001H28.3301H26.6701H25.0001H23.3301V46.5799H21.6701H20.0001H18.3301H16.6701V44.8899H15.0001V46.5799H13.3301V44.8899H11.6701V46.5799V48.2599H10.0001V49.9499H8.33008V51.6299H10.0001H11.6701H13.3301V53.3199H15.0001V51.6299H16.6701V49.9499H18.3301V51.6299H20.0001H21.6701V53.3199H23.3301H25.0001H26.6701V51.6299H28.3301H30.0001H31.6701H33.3301H35.0001V53.3199H36.6701V51.6299H38.3301H40.0001V49.9499H41.6701V48.2599H43.3301V46.5799V44.8899H41.6701V46.5799Z" fill="#E7C08D"/>
<path d="M15.0001 39.8398H13.3301V41.5198H15.0001V39.8398Z" fill="#E7C08D"/>
<path d="M11.6701 38.16H10.0001V36.47H8.33008V38.16V39.84H10.0001V41.53H11.6701V39.84H13.3301V38.16H11.6701Z" fill="#E7C08D"/>
<path d="M43.33 34.7899V33.1099H41.67V31.4199H40V29.7399H38.33V28.0499H36.67V26.3699H35V24.6799H33.33H31.67H30H28.33H26.67H25V26.3699H23.33H21.67H20V28.0499V29.7399V31.4199H18.33V33.1099V34.7899H16.67V36.4699H15V38.1599V39.8399H16.67H18.33H20V38.1599H21.67H23.33H25V36.4699V34.7899H26.67H28.33H30V33.1099V31.4199V29.7399V28.0499H31.67V29.7399H33.33V31.4199V33.1099H35V34.7899V36.4699H36.67V34.7899H38.33H40V36.4699H41.67H43.33H45V34.7899H43.33Z" fill="#E7C08D"/>
<path d="M23.33 53.3201H21.67H20V55.0001H21.67H23.33H25H26.67V53.3201H25H23.33Z" fill="#8E7555"/>
<path d="M15.0001 53.3201H13.3301V55.0001H15.0001H16.6701H18.3301V53.3201H16.6701H15.0001Z" fill="#8E7555"/>
<path d="M40.0001 51.6299H38.3301V53.3099H40.0001V51.6299Z" fill="#8E7555"/>
<path d="M33.3299 51.6299H31.6699H29.9999H28.3299H26.6699V53.3199H28.3299H29.9999H31.6699H33.3299H34.9999V51.6299H33.3299Z" fill="#8E7555"/>
<path d="M35 53.3201V55.0001H36.67H38.33V53.3201H36.67H35Z" fill="#8E7555"/>
<path d="M20.0001 51.6299H18.3301V53.3099H20.0001V51.6299Z" fill="#8E7555"/>
<path d="M11.6701 51.6299H10.0001H8.33008V53.3199H10.0001H11.6701H13.3301V51.6299H11.6701Z" fill="#8E7555"/>
<path d="M18.3399 49.95H16.6699V51.6299H18.3399V49.95Z" fill="#8E7555"/>
<path d="M8.33992 49.95H6.66992V51.6299H8.33992V49.95Z" fill="#8E7555"/>
<path d="M43.3399 48.26H41.6699V49.94H43.3399V48.26Z" fill="#8E7555"/>
<path d="M10.0001 48.26H8.33008V49.94H10.0001V48.26Z" fill="#8E7555"/>
<path d="M6.67 48.26H5V49.94H6.67V48.26Z" fill="#8E7555"/>
<path d="M3.33992 48.26H1.66992V49.94H3.33992V48.26Z" fill="#8E7555"/>
<path d="M8.33992 46.5801H6.66992V48.2601H8.33992V46.5801Z" fill="#8E7555"/>
<path d="M5.00008 46.5801H3.33008V48.2601H5.00008V46.5801Z" fill="#8E7555"/>
<path d="M15.0001 44.8899H13.3301V46.5699H15.0001V44.8899Z" fill="#8E7555"/>
<path d="M6.67 44.8899H5V46.5699H6.67V44.8899Z" fill="#8E7555"/>
<path d="M1.67 44.89V43.21V41.53H0V43.21V44.89V46.58V48.26H1.67V46.58V44.89Z" fill="#8E7555"/>
<path d="M46.67 43.21H45V44.89H46.67V43.21Z" fill="#8E7555"/>
<path d="M11.6699 41.5301V43.2101V44.8901H13.3299V43.2101V41.5301V39.8401H11.6699V41.5301Z" fill="#8E7555"/>
<path d="M3.33992 39.8401H1.66992V41.5201H3.33992V39.8401Z" fill="#8E7555"/>
<path d="M34.9999 38.1599H33.3299V39.8399V41.5299H31.6699V43.2099H33.3299H34.9999H36.6699V41.5299H34.9999V39.8399V38.1599Z" fill="#8E7555"/>
<path d="M15.0001 38.1599H13.3301V39.8399H15.0001V38.1599Z" fill="#8E7555"/>
<path d="M6.67008 39.8399V38.1599H5.00008H3.33008V39.8399H5.00008H6.67008Z" fill="#8E7555"/>
<path d="M28.33 38.16V36.47V34.79H26.67H25V36.47V38.16H26.67H28.33Z" fill="#8E7555"/>
<path d="M8.33992 36.47H6.66992V38.15H8.33992V36.47Z" fill="#8E7555"/>
<path d="M48.3399 34.79H46.6699V36.47H48.3399V34.79Z" fill="#8E7555"/>
<path d="M36.6699 34.79V36.47V38.16H38.3299H39.9999V36.47V34.79H38.3299H36.6699Z" fill="#8E7555"/>
<path d="M10.0001 34.7899V33.1099V31.4199H8.33008V33.1099V34.7899V36.4699H10.0001V34.7899Z" fill="#8E7555"/>
<path d="M48.3301 31.4199V33.1099V34.7899H50.0001V33.1099V31.4199H48.3301Z" fill="#8E7555"/>
<path d="M46.67 29.74H45V31.42H46.67H48.33V29.74H46.67Z" fill="#8E7555"/>
<path d="M11.67 29.74H10V31.42H11.67V29.74Z" fill="#8E7555"/>
<path d="M15.0001 28.05H13.3301V29.73H15.0001V28.05Z" fill="#8E7555"/>
<path d="M45.0001 26.3701H43.3301V28.0501V29.7401H45.0001V28.0501V26.3701Z" fill="#8E7555"/>
<path d="M36.6699 26.3701V28.0501H38.3299H39.9999V26.3701H38.3299H36.6699Z" fill="#8E7555"/>
<path d="M16.67 26.3701H15V28.0501H16.67H18.33H20V26.3701H18.33H16.67Z" fill="#8E7555"/>
<path d="M41.67 24.6799H40V26.3699H41.67H43.33V24.6799H41.67Z" fill="#8E7555"/>
<path d="M36.67 24.6799H35V26.3599H36.67V24.6799Z" fill="#8E7555"/>
<path d="M21.67 24.6799H20V26.3699H21.67H23.33H25V24.6799H23.33H21.67Z" fill="#8E7555"/>
<path d="M33.33 23H31.67H30H28.33H26.67H25V24.68H26.67H28.33H30H31.67H33.33H35V23H33.33Z" fill="#8E7555"/>
</g>
<defs>
<clipPath id="clip0_542_6437">
<rect width="14" height="8" fill="white" transform="translate(17)"/>
</clipPath>
<clipPath id="clip1_542_6437">
<rect width="50" height="32" fill="white" transform="translate(0 23)"/>
</clipPath>
</defs>
</svg>
