<?xml version="1.0" encoding="UTF-8"?>
<svg id="_圖層_2" data-name="圖層 2" xmlns="http://www.w3.org/2000/svg" viewBox="0 0 50 32">
  <defs>
    <style>
      .cls-1 {
        fill: #fde1e0;
      }

      .cls-2 {
        fill: #e3eefd;
      }

      .cls-3 {
        fill: #eac89d;
      }

      .cls-4 {
        fill: #9c866a;
      }

      .cls-5 {
        fill: #e7c08d;
      }

      .cls-6 {
        fill: #8e7555;
      }

      .cls-7 {
        fill: #a78760;
      }

      .cls-8 {
        fill: #d4e3f6;
      }

      .cls-9 {
        fill: #947d5f;
      }

      .cls-10 {
        fill: #fff;
      }

      .cls-11 {
        fill: #c59e6e;
      }

      .cls-12 {
        fill: #967f60;
      }

      .cls-13 {
        fill: #eac699;
      }

      .cls-14 {
        fill: #9e8462;
      }

      .cls-15 {
        fill: #967e60;
      }

      .cls-16 {
        fill: #d8b283;
      }

      .cls-17 {
        fill: #ead0b0;
      }

      .cls-18 {
        fill: #dfba8a;
      }
    </style>
  </defs>
  <g id="_圖層_1-2" data-name="圖層 1">
    <g id="Vz0z12.tif">
      <g>
        <rect class="cls-4" x="40" y="28.63" width="1.67" height="1.68"/>
        <rect class="cls-3" x="36.67" y="28.63" width="1.67" height="1.68"/>
        <rect class="cls-16" x="20" y="28.63" width="1.67" height="1.68"/>
        <rect class="cls-13" x="15" y="28.63" width="1.67" height="1.68"/>
        <rect class="cls-9" x="41.67" y="26.95" width="1.67" height="1.68"/>
        <rect class="cls-18" x="40" y="26.95" width="1.67" height="1.68"/>
        <rect class="cls-12" x="43.33" y="23.58" width="1.67" height="1.68"/>
        <rect class="cls-14" x="43.33" y="21.89" width="1.67" height="1.68"/>
        <rect class="cls-9" x="46.67" y="18.53" width="1.67" height="1.68"/>
        <rect class="cls-15" x="46.67" y="16.84" width="1.67" height="1.68"/>
        <polygon class="cls-8" points="10 18.53 10 16.84 8.33 16.84 8.33 18.53 8.33 20.21 6.67 20.21 6.67 21.89 6.67 23.58 8.33 23.58 8.33 25.26 10 25.26 11.67 25.26 11.67 23.58 11.67 21.89 11.67 20.21 11.67 18.53 10 18.53"/>
        <rect class="cls-9" x="46.67" y="15.16" width="1.67" height="1.68"/>
        <polygon class="cls-2" points="6.67 15.16 6.67 16.84 5 16.84 3.33 16.84 3.33 18.53 1.67 18.53 1.67 20.21 1.67 21.89 1.67 23.58 1.67 25.26 3.33 25.26 3.33 23.58 5 23.58 5 21.89 6.67 21.89 6.67 20.21 8.33 20.21 8.33 18.53 8.33 16.84 8.33 15.16 6.67 15.16"/>
        <rect class="cls-9" x="45" y="13.47" width="1.67" height="1.68"/>
        <g>
          <polygon class="cls-1" points="35 15.16 35 16.84 35 18.53 36.67 18.53 36.67 16.84 36.67 15.16 35 15.16"/>
          <polygon class="cls-1" points="31.67 16.84 31.67 18.53 33.33 18.53 33.33 16.84 33.33 15.16 31.67 15.16 31.67 16.84"/>
          <rect class="cls-1" x="33.33" y="13.47" width="1.67" height="1.68"/>
        </g>
        <rect class="cls-7" x="45" y="11.79" width="1.67" height="1.68"/>
        <rect class="cls-17" x="28.33" y="11.79" width="1.67" height="1.68"/>
        <rect class="cls-17" x="31.67" y="6.74" width="1.67" height="1.68"/>
        <g>
          <polygon class="cls-10" points="45 15.16 45 13.47 43.33 13.47 41.67 13.47 40 13.47 40 15.16 38.33 15.16 36.67 15.16 36.67 16.84 36.67 18.53 36.67 20.21 35 20.21 33.33 20.21 31.67 20.21 31.67 18.53 31.67 16.84 31.67 15.16 33.33 15.16 33.33 13.47 35 13.47 35 11.79 35 10.11 33.33 10.11 33.33 8.42 31.67 8.42 31.67 6.74 31.67 5.05 30 5.05 30 6.74 30 8.42 30 10.11 30 11.79 30 13.47 28.33 13.47 28.33 15.16 26.67 15.16 25 15.16 23.33 15.16 21.67 15.16 20 15.16 20 16.84 18.33 16.84 16.67 16.84 15 16.84 15 18.53 13.33 18.53 13.33 20.21 13.33 21.89 15 21.89 16.67 21.89 16.67 23.58 18.33 23.58 20 23.58 21.67 23.58 23.33 23.58 23.33 25.26 25 25.26 26.67 25.26 28.33 25.26 30 25.26 31.67 25.26 33.33 25.26 35 25.26 36.67 25.26 38.33 25.26 38.33 23.58 40 23.58 41.67 23.58 41.67 21.89 43.33 21.89 45 21.89 45 20.21 46.67 20.21 46.67 18.53 46.67 16.84 46.67 15.16 45 15.16"/>
          <rect class="cls-10" x="35" y="13.47" width="1.67" height="1.68"/>
        </g>
        <g>
          <polygon class="cls-11" points="46.67 8.42 45 8.42 45 6.74 43.33 6.74 43.33 5.05 43.33 3.37 41.67 3.37 40 3.37 40 5.05 38.33 5.05 38.33 6.74 40 6.74 40 8.42 41.67 8.42 41.67 10.11 43.33 10.11 43.33 11.79 45 11.79 46.67 11.79 48.33 11.79 48.33 10.11 48.33 8.42 46.67 8.42"/>
          <polygon class="cls-11" points="16.67 5.05 15 5.05 15 6.74 13.33 6.74 11.67 6.74 11.67 8.42 10 8.42 10 10.11 10 11.79 10 13.47 10 15.16 11.67 15.16 13.33 15.16 15 15.16 15 13.47 16.67 13.47 16.67 11.79 18.33 11.79 18.33 10.11 18.33 8.42 20 8.42 20 6.74 20 5.05 18.33 5.05 16.67 5.05"/>
        </g>
        <g>
          <rect class="cls-5" x="16.67" y="28.63" width="1.67" height="1.68"/>
          <rect class="cls-5" x="6.67" y="25.26" width="1.67" height="1.68"/>
          <rect class="cls-5" x="5" y="23.58" width="1.67" height="1.68"/>
          <polygon class="cls-5" points="41.67 23.58 40 23.58 38.33 23.58 38.33 25.26 36.67 25.26 35 25.26 33.33 25.26 31.67 25.26 30 25.26 28.33 25.26 26.67 25.26 25 25.26 23.33 25.26 23.33 23.58 21.67 23.58 20 23.58 18.33 23.58 16.67 23.58 16.67 21.89 15 21.89 15 23.58 13.33 23.58 13.33 21.89 11.67 21.89 11.67 23.58 11.67 25.26 10 25.26 10 26.95 8.33 26.95 8.33 28.63 10 28.63 11.67 28.63 13.33 28.63 13.33 30.32 15 30.32 15 28.63 16.67 28.63 16.67 26.95 18.33 26.95 18.33 28.63 20 28.63 21.67 28.63 21.67 30.32 23.33 30.32 25 30.32 26.67 30.32 26.67 28.63 28.33 28.63 30 28.63 31.67 28.63 33.33 28.63 35 28.63 35 30.32 36.67 30.32 36.67 28.63 38.33 28.63 40 28.63 40 26.95 41.67 26.95 41.67 25.26 43.33 25.26 43.33 23.58 43.33 21.89 41.67 21.89 41.67 23.58"/>
          <rect class="cls-5" x="13.33" y="16.84" width="1.67" height="1.68"/>
          <polygon class="cls-5" points="11.67 15.16 10 15.16 10 13.47 8.33 13.47 8.33 15.16 8.33 16.84 10 16.84 10 18.53 11.67 18.53 11.67 16.84 13.33 16.84 13.33 15.16 11.67 15.16"/>
          <polygon class="cls-5" points="43.33 11.79 43.33 10.11 41.67 10.11 41.67 8.42 40 8.42 40 6.74 38.33 6.74 38.33 5.05 36.67 5.05 36.67 3.37 35 3.37 35 1.68 33.33 1.68 31.67 1.68 30 1.68 28.33 1.68 26.67 1.68 25 1.68 25 3.37 23.33 3.37 21.67 3.37 20 3.37 20 5.05 20 6.74 20 8.42 18.33 8.42 18.33 10.11 18.33 11.79 16.67 11.79 16.67 13.47 15 13.47 15 15.16 15 16.84 16.67 16.84 18.33 16.84 20 16.84 20 15.16 21.67 15.16 23.33 15.16 25 15.16 25 13.47 25 11.79 26.67 11.79 28.33 11.79 30 11.79 30 10.11 30 8.42 30 6.74 30 5.05 31.67 5.05 31.67 6.74 33.33 6.74 33.33 8.42 33.33 10.11 35 10.11 35 11.79 35 13.47 36.67 13.47 36.67 11.79 38.33 11.79 40 11.79 40 13.47 41.67 13.47 43.33 13.47 45 13.47 45 11.79 43.33 11.79"/>
        </g>
        <g>
          <polygon class="cls-6" points="23.33 30.32 21.67 30.32 20 30.32 20 32 21.67 32 23.33 32 25 32 26.67 32 26.67 30.32 25 30.32 23.33 30.32"/>
          <polygon class="cls-6" points="15 30.32 13.33 30.32 13.33 32 15 32 16.67 32 18.33 32 18.33 30.32 16.67 30.32 15 30.32"/>
          <rect class="cls-6" x="38.33" y="28.63" width="1.67" height="1.68"/>
          <polygon class="cls-6" points="33.33 28.63 31.67 28.63 30 28.63 28.33 28.63 26.67 28.63 26.67 30.32 28.33 30.32 30 30.32 31.67 30.32 33.33 30.32 35 30.32 35 28.63 33.33 28.63"/>
          <polygon class="cls-6" points="35 30.32 35 32 36.67 32 38.33 32 38.33 30.32 36.67 30.32 35 30.32"/>
          <rect class="cls-6" x="18.33" y="28.63" width="1.67" height="1.68"/>
          <polygon class="cls-6" points="11.67 28.63 10 28.63 8.33 28.63 8.33 30.32 10 30.32 11.67 30.32 13.33 30.32 13.33 28.63 11.67 28.63"/>
          <rect class="cls-6" x="16.67" y="26.95" width="1.67" height="1.68"/>
          <rect class="cls-6" x="6.67" y="26.95" width="1.67" height="1.68"/>
          <rect class="cls-6" x="41.67" y="25.26" width="1.67" height="1.68"/>
          <rect class="cls-6" x="8.33" y="25.26" width="1.67" height="1.68"/>
          <rect class="cls-6" x="5" y="25.26" width="1.67" height="1.68"/>
          <rect class="cls-6" x="1.67" y="25.26" width="1.67" height="1.68"/>
          <rect class="cls-6" x="6.67" y="23.58" width="1.67" height="1.68"/>
          <rect class="cls-6" x="3.33" y="23.58" width="1.67" height="1.68"/>
          <rect class="cls-6" x="13.33" y="21.89" width="1.67" height="1.68"/>
          <rect class="cls-6" x="5" y="21.89" width="1.67" height="1.68"/>
          <polygon class="cls-6" points="1.67 21.89 1.67 20.21 1.67 18.53 0 18.53 0 20.21 0 21.89 0 23.58 0 25.26 1.67 25.26 1.67 23.58 1.67 21.89"/>
          <rect class="cls-6" x="45" y="20.21" width="1.67" height="1.68"/>
          <polygon class="cls-6" points="11.67 18.53 11.67 20.21 11.67 21.89 13.33 21.89 13.33 20.21 13.33 18.53 13.33 16.84 11.67 16.84 11.67 18.53"/>
          <rect class="cls-6" x="1.67" y="16.84" width="1.67" height="1.68"/>
          <polygon class="cls-6" points="35 15.16 33.33 15.16 33.33 16.84 33.33 18.53 31.67 18.53 31.67 20.21 33.33 20.21 35 20.21 36.67 20.21 36.67 18.53 35 18.53 35 16.84 35 15.16"/>
          <rect class="cls-6" x="13.33" y="15.16" width="1.67" height="1.68"/>
          <polygon class="cls-6" points="6.67 16.84 6.67 15.16 5 15.16 3.33 15.16 3.33 16.84 5 16.84 6.67 16.84"/>
          <polygon class="cls-6" points="28.33 15.16 28.33 13.47 28.33 11.79 26.67 11.79 25 11.79 25 13.47 25 15.16 26.67 15.16 28.33 15.16"/>
          <rect class="cls-6" x="6.67" y="13.47" width="1.67" height="1.68"/>
          <rect class="cls-6" x="46.67" y="11.79" width="1.67" height="1.68"/>
          <polygon class="cls-6" points="36.67 11.79 36.67 13.47 36.67 15.16 38.33 15.16 40 15.16 40 13.47 40 11.79 38.33 11.79 36.67 11.79"/>
          <polygon class="cls-6" points="10 11.79 10 10.11 10 8.42 8.33 8.42 8.33 10.11 8.33 11.79 8.33 13.47 10 13.47 10 11.79"/>
          <polygon class="cls-6" points="48.33 8.42 48.33 10.11 48.33 11.79 50 11.79 50 10.11 50 8.42 48.33 8.42"/>
          <polygon class="cls-6" points="46.67 6.74 45 6.74 45 8.42 46.67 8.42 48.33 8.42 48.33 6.74 46.67 6.74"/>
          <rect class="cls-6" x="10" y="6.74" width="1.67" height="1.68"/>
          <rect class="cls-6" x="13.33" y="5.05" width="1.67" height="1.68"/>
          <polygon class="cls-6" points="45 3.37 43.33 3.37 43.33 5.05 43.33 6.74 45 6.74 45 5.05 45 3.37"/>
          <polygon class="cls-6" points="36.67 3.37 36.67 5.05 38.33 5.05 40 5.05 40 3.37 38.33 3.37 36.67 3.37"/>
          <polygon class="cls-6" points="16.67 3.37 15 3.37 15 5.05 16.67 5.05 18.33 5.05 20 5.05 20 3.37 18.33 3.37 16.67 3.37"/>
          <polygon class="cls-6" points="41.67 1.68 40 1.68 40 3.37 41.67 3.37 43.33 3.37 43.33 1.68 41.67 1.68"/>
          <rect class="cls-6" x="35" y="1.68" width="1.67" height="1.68"/>
          <polygon class="cls-6" points="21.67 1.68 20 1.68 20 3.37 21.67 3.37 23.33 3.37 25 3.37 25 1.68 23.33 1.68 21.67 1.68"/>
          <polygon class="cls-6" points="33.33 0 31.67 0 30 0 28.33 0 26.67 0 25 0 25 1.68 26.67 1.68 28.33 1.68 30 1.68 31.67 1.68 33.33 1.68 35 1.68 35 0 33.33 0"/>
        </g>
      </g>
    </g>
  </g>
</svg>