<?xml version="1.0" encoding="UTF-8"?>
<svg id="_圖層_2" data-name="圖層 2" xmlns="http://www.w3.org/2000/svg" viewBox="0 0 23 31">
  <defs>
    <style>
      .cls-1 {
        fill: #fff2d6;
      }

      .cls-2 {
        fill: #ee9749;
      }

      .cls-3 {
        fill: #fe6974;
      }

      .cls-4 {
        fill: #fff;
      }

      .cls-5 {
        fill: #de5466;
      }

      .cls-6 {
        fill: #f35877;
      }
    </style>
  </defs>
  <g id="_獎牌" data-name="獎牌">
    <g>
      <polygon class="cls-5" points="8 22 7 22 7 23 8 23 9 23 10 23 10 22 9 22 8 22"/>
      <polygon class="cls-5" points="18 21 17 21 16 21 16 22 15 22 14 22 13 22 13 23 14 23 15 23 16 23 17 23 17 22 18 22 19 22 19 21 18 21"/>
      <polygon class="cls-5" points="6 21 5 21 5 22 6 22 7 22 7 21 6 21"/>
      <polygon class="cls-3" points="21 28 21 27 21 26 21 25 20 25 20 24 20 23 20 22 19 22 18 22 17 22 17 23 16 23 15 23 14 23 13 23 12 23 12 24 12 25 12 26 13 26 13 27 13 28 13 29 14 29 14 30 14 31 15 31 15 30 16 30 16 29 17 29 17 28 18 28 18 29 19 29 20 29 21 29 21 30 22 30 22 29 22 28 21 28"/>
      <polygon class="cls-3" points="9 23 8 23 7 23 7 22 6 22 5 22 5 21 4 21 4 22 4 23 4 24 3 24 3 25 3 26 3 27 2 27 2 28 2 29 3 29 4 29 5 29 6 29 6 30 7 30 8 30 8 31 9 31 9 30 9 29 10 29 10 28 10 27 11 27 11 26 11 25 11 24 11 23 10 23 9 23"/>
      <rect class="cls-6" x="18" y="20" width="1" height="1"/>
      <polygon class="cls-4" points="12 11 11 11 10 11 10 12 11 12 12 12 12 13 11 13 10 13 10 14 11 14 12 14 12 15 11 15 10 15 10 16 11 16 12 16 13 16 13 15 13 14 13 13 13 12 13 11 12 11"/>
      <rect class="cls-1" x="15" y="11" width="1" height="1"/>
      <rect class="cls-1" x="7" y="11" width="1" height="1"/>
      <path class="cls-1" d="M19,9v-1h-1v-2h-1v-1h-1v-1h-2v-1h-5v1h-2v1h-1v1h-1v2h-2v7h2v3h2v1h2v1h5v-1h2v-1h2v-2h1v-2h1v-5h-1ZM6,9h2v-3h3v3h-3v2h1v-1h5v1h1v-2h-3v-3h3v3h3v3h-2v3h-1v1h-1v1h-1v1h-3v-1h-1v-1h-1v-1h-1v-3h-2v-3h1Z"/>
      <path class="cls-2" d="M15,11h-1v-1h-5v1h-1v1h-1v3h1v1h1v1h1v1h3v-1h1v-1h1v-1h1v-3h-1v-1ZM12,16h-2v-1h2v-1h-2v-1h2v-1h-2v-1h3v5h-1Z"/>
      <polygon class="cls-2" points="8 11 8 10 8 9 7 9 6 9 5 9 5 10 5 11 5 12 6 12 7 12 7 11 8 11"/>
      <path class="cls-2" d="M22,9v-3h-1v-1h-1v-1h-1v-1h-1v-1h-2v-1h-2V0h-5v1h-2v1h-2v1h-1v1h-1v1h-1v2h-1v3H0v3h1v3h1v3h2v1h1v1h2v1h3v1h3v-1h3v-1h2v-1h1v-1h1v-1h1v-1h1v-3h1v-5h-1ZM20,14h-1v2h-1v2h-2v1h-2v1h-5v-1h-2v-1h-2v-3h-2v-7h2v-2h1v-1h1v-1h2v-1h5v1h2v1h1v1h1v2h1v1h1v5Z"/>
      <polygon class="cls-2" points="16 9 15 9 15 10 15 11 16 11 16 12 17 12 18 12 18 11 18 10 18 9 17 9 16 9"/>
      <polygon class="cls-2" points="10 9 11 9 11 8 11 7 11 6 10 6 9 6 8 6 8 7 8 8 8 9 9 9 10 9"/>
      <polygon class="cls-2" points="15 7 15 6 14 6 13 6 12 6 12 7 12 8 12 9 13 9 14 9 15 9 15 8 15 7"/>
    </g>
  </g>
</svg>