<svg width="50" height="55" viewBox="0 0 50 55" fill="none" xmlns="http://www.w3.org/2000/svg">
<g clip-path="url(#clip0_542_6132)">
<rect x="28.375" width="0.875" height="1" fill="#67554F"/>
<rect x="18.75" width="0.875" height="1" fill="#67554F"/>
<rect x="27.5" y="1" width="0.875" height="1" fill="#67554F"/>
<rect x="19.625" y="1" width="0.875" height="1" fill="#67554F"/>
<rect x="27.5" y="2" width="0.875" height="1" fill="#67554F"/>
<rect x="28.375" y="2" width="0.875" height="1" fill="#67554F"/>
<rect x="27.5" y="3" width="0.875" height="1" fill="#67554F"/>
<rect x="19.625" y="2" width="0.875" height="1" fill="#67554F"/>
<rect x="18.75" y="2" width="0.875" height="1" fill="#67554F"/>
<rect x="20.5" y="2" width="0.875" height="1" fill="#67554F"/>
<rect x="20.5" y="3" width="0.875" height="1" fill="#67554F"/>
<rect x="19.625" y="3" width="0.875" height="1" fill="#67554F"/>
<rect x="20.5" y="4" width="0.875" height="1" fill="#67554F"/>
<rect x="26.625" y="3" width="0.875" height="1" fill="#67554F"/>
<rect x="26.625" y="4" width="0.875" height="1" fill="#67554F"/>
<rect x="25.75" y="4" width="0.875" height="1" fill="#67554F"/>
<rect x="21.375" y="4" width="0.875" height="1" fill="#67554F"/>
<rect x="25.75" y="5" width="0.875" height="1" fill="#67554F"/>
<rect x="21.375" y="5" width="0.875" height="1" fill="#67554F"/>
<rect x="24.875" y="6" width="0.875" height="1" fill="#67554F"/>
<rect x="22.25" y="6" width="0.875" height="1" fill="#67554F"/>
<rect x="22.25" y="5" width="0.875" height="1" fill="#67554F"/>
<rect x="24.875" y="5" width="0.875" height="1" fill="#67554F"/>
<rect x="18.75" y="1" width="0.875" height="1" fill="#67554F"/>
<rect x="17.875" y="1" width="0.875" height="1" fill="#67554F"/>
<rect x="28.375" y="1" width="0.875" height="1" fill="#67554F"/>
<rect x="29.25" y="1" width="0.875" height="1" fill="#67554F"/>
<rect x="23.125" y="6" width="0.875" height="1" fill="#67554F"/>
<rect x="23.125" y="7" width="0.875" height="1" fill="#67554F"/>
<rect x="24" y="6" width="0.875" height="1" fill="#67554F"/>
<rect x="24" y="7" width="0.875" height="1" fill="#67554F"/>
<rect x="23.125" y="2" width="0.875" height="1" fill="#67554F"/>
<rect x="23.125" y="3" width="0.875" height="1" fill="#67554F"/>
<rect x="23.125" y="4" width="0.875" height="1" fill="#67554F"/>
<rect x="23.125" y="5" width="0.875" height="1" fill="#67554F"/>
<rect x="24" y="5" width="0.875" height="1" fill="#67554F"/>
<rect x="24" y="4" width="0.875" height="1" fill="#67554F"/>
<rect x="24" y="3" width="0.875" height="1" fill="#67554F"/>
<rect x="24" y="2" width="0.875" height="1" fill="#67554F"/>
<rect x="24" y="1" width="0.875" height="1" fill="#67554F"/>
<rect x="24" width="0.875" height="1" fill="#67554F"/>
<rect x="24.875" width="0.875" height="1" fill="#67554F"/>
<rect x="24.875" y="1" width="0.875" height="1" fill="#67554F"/>
<rect x="24.875" y="2" width="0.875" height="1" fill="#67554F"/>
<rect x="24.875" y="3" width="0.875" height="1" fill="#67554F"/>
<rect x="24.875" y="4" width="0.875" height="1" fill="#67554F"/>
<rect x="25.75" y="3" width="0.875" height="1" fill="#67554F"/>
<rect x="25.75" y="2" width="0.875" height="1" fill="#67554F"/>
<rect x="25.75" y="1" width="0.875" height="1" fill="#67554F"/>
<rect x="25.75" width="0.875" height="1" fill="#67554F"/>
<rect x="26.625" width="0.875" height="1" fill="#67554F"/>
<rect x="26.625" y="1" width="0.875" height="1" fill="#67554F"/>
<rect x="26.625" y="2" width="0.875" height="1" fill="#67554F"/>
<rect x="27.5" width="0.875" height="1" fill="#67554F"/>
<rect x="23.125" width="0.875" height="1" fill="#67554F"/>
<rect x="23.125" y="1" width="0.875" height="1" fill="#67554F"/>
<rect x="22.25" y="1" width="0.875" height="1" fill="#67554F"/>
<rect x="22.25" y="2" width="0.875" height="1" fill="#67554F"/>
<rect x="22.25" y="3" width="0.875" height="1" fill="#67554F"/>
<rect x="22.25" y="4" width="0.875" height="1" fill="#67554F"/>
<rect x="21.375" y="3" width="0.875" height="1" fill="#67554F"/>
<rect x="21.375" y="2" width="0.875" height="1" fill="#67554F"/>
<rect x="21.375" y="1" width="0.875" height="1" fill="#67554F"/>
<rect x="21.375" width="0.875" height="1" fill="#67554F"/>
<rect x="22.25" width="0.875" height="1" fill="#67554F"/>
<rect x="20.5" y="1" width="0.875" height="1" fill="#67554F"/>
<rect x="20.5" width="0.875" height="1" fill="#67554F"/>
<rect x="19.625" width="0.875" height="1" fill="#67554F"/>
<rect x="17.875" width="0.875" height="1" fill="#67554F"/>
<rect x="29.25" width="0.875" height="1" fill="#67554F"/>
</g>
<g clip-path="url(#clip1_542_6132)">
<path d="M11.7 51.8H10V53.4H11.7V51.8Z" fill="#C2A077"/>
<path d="M19.9998 50.2H18.2998V51.7999H19.9998V50.2Z" fill="#6E5B44"/>
<path d="M6.7 47H5V48.6H6.7V47Z" fill="#B89870"/>
<path d="M6.7 43.8H5V45.4H6.7V43.8Z" fill="#77634C"/>
<path d="M9.9998 42.2H8.2998V43.7999H9.9998V42.2Z" fill="#695A48"/>
<path d="M49.9998 40.6001H48.2998V42.2001H49.9998V40.6001Z" fill="#6A5945"/>
<path d="M6.7 40.6001H5V42.2001H6.7V40.6001Z" fill="#E0EBF9"/>
<path d="M1.7 40.6001H0V42.2001H1.7V40.6001Z" fill="#6B5A49"/>
<path d="M1.7 39H0V40.6H1.7V39Z" fill="#685745"/>
<path d="M16.7 35.8H15V37.4H16.7V35.8Z" fill="#C6A57E"/>
<path d="M3.3002 42.2H1.7002V43.7999H3.3002H5.0002H6.7002V42.2H5.0002H3.3002Z" fill="#C4D8F2"/>
<path d="M8.3002 40.6001H6.7002V42.2001H8.3002H10.0002V40.6001H8.3002Z" fill="#C4D8F2"/>
<path d="M13.3 39V40.6H11.7V42.2H10V43.8H11.7H13.3H15V42.2V40.6V39H13.3Z" fill="#C4D8F2"/>
<path d="M5.00029 37.4001H3.30029V39.0001H5.00029V37.4001Z" fill="#C4D8F2"/>
<path d="M6.7 35.8H5V37.4H6.7V35.8Z" fill="#C4D8F2"/>
<path d="M43.4002 34.2H41.7002V35.8H43.4002V34.2Z" fill="#564839"/>
<path d="M39.9998 34.2H38.2998V35.8H39.9998V34.2Z" fill="#564939"/>
<path d="M13.3002 35.8H11.7002H10.0002V34.2H8.3002H6.7002V35.8V37.4H5.0002V39H3.3002H1.7002V40.6V42.2H3.3002H5.0002V40.6H6.7002H8.3002H10.0002V42.2H11.7002V40.6H13.3002V39H15.0002V37.4V35.8H13.3002Z" fill="#E3EFFE"/>
<path d="M5.00029 35.8H3.30029V37.4H5.00029V35.8Z" fill="#E3EFFE"/>
<path d="M29.9998 32.6001H28.2998V34.2001H29.9998V32.6001Z" fill="#F8C6C3"/>
<path d="M28.4002 32.6001H26.7002V34.2001H28.4002V32.6001Z" fill="#F8C6C3"/>
<path d="M26.7 32.6001H25V34.2001H26.7V32.6001Z" fill="#F5C3BE"/>
<path d="M24.9998 26.2H23.2998V27.8H24.9998V26.2Z" fill="#715D46"/>
<path d="M46.6999 37.4001V31.0001H44.9999V29.4001H43.2999V27.8001H39.9999V26.2001H38.2999V24.6001H28.2999V26.2001H24.9999V27.8001H21.6999V29.4001H16.6999V31.0001H13.3999V32.6001H11.6999V34.2001H14.9999V35.8001H16.6999V37.4001H14.9999V45.4001H8.2999V43.8001H6.5999V45.4001H4.8999V47.0001H6.5999V50.2001H8.2999V51.8001H11.5999V53.4001H14.8999V48.6001H18.1999V50.2001H19.8999V51.8001H29.8999V50.2001H38.1999V47.0001H44.8999V45.4001H46.5999V40.6001H48.2999V37.4001H46.5999H46.6999ZM29.9999 34.2001H24.9999V32.6001H29.9999V34.2001ZM33.2999 31.0001H28.2999V29.4001H33.2999V31.0001ZM44.9999 34.2001V39.0001H43.2999V42.2001H41.5999V43.8001H38.2999V42.2001H36.5999V39.0001H34.8999V32.6001H36.5999V31.0001H43.2999V32.6001H44.9999V34.2001Z" fill="#C5A278"/>
<path d="M33.2998 50.2002H31.6998H29.9998V51.8002H28.2998V53.4002H29.9998H31.6998H33.2998H34.9998V51.8002H36.6998V50.2002H34.9998H33.2998Z" fill="#927654"/>
<path d="M18.3 50.2002H16.7H15V51.8002V53.4002H16.7H18.3H20V51.8002H18.3V50.2002Z" fill="#927654"/>
<path d="M39.9998 48.6001H38.2998V50.2001V51.8001H39.9998H41.6998V50.2001V48.6001H39.9998Z" fill="#927654"/>
<path d="M21.6998 24.6001H19.9998V26.2001H18.2998V27.8001V29.4001H19.9998H21.6998V27.8001H23.2998V26.2001H21.6998V24.6001Z" fill="#927654"/>
<path d="M31.6998 53.3999H29.9998H28.2998V54.9999H29.9998H31.6998H33.2998H34.9998V53.3999H33.2998H31.6998Z" fill="#6B5943"/>
<path d="M26.7 51.8H25H23.3H21.7H20V53.4H18.3H16.7H15H13.3H11.7H10V55H11.7H13.3H15H16.7H18.3H20H21.7V53.4H23.3H25H26.7H28.3V51.8H26.7Z" fill="#6B5943"/>
<path d="M8.3002 51.8V50.2001H6.7002V48.6H5.0002V47V45.4V43.8H3.3002H1.7002V45.4H3.3002V47V48.6V50.2001H5.0002V51.8H6.7002V53.4H8.3002H10.0002V51.8H8.3002Z" fill="#6B5943"/>
<path d="M15 50.2001H16.7H18.3V48.6001H16.7H15V50.2001Z" fill="#6B5943"/>
<path d="M41.7 47H40H38.3V48.6H40H41.7V50.2V51.8H40H38.3V50.2H36.7V51.8H35V53.4H36.7H38.3H40H41.7H43.3V51.8V50.2H45V48.6V47H43.3H41.7Z" fill="#6B5943"/>
<path d="M9.9998 45.4H11.6998H13.2998H14.9998V43.8H13.2998H11.6998H9.9998H8.2998V45.4H9.9998Z" fill="#6B5943"/>
<path d="M8.4002 42.2H6.7002V43.7999H8.4002V42.2Z" fill="#6B5943"/>
<path d="M1.7 42.2H0V43.7999H1.7V42.2Z" fill="#6B5943"/>
<path d="M46.7 42.2001V43.8001V45.4001H45V47.0001H46.7H48.3V45.4001V43.8001H50V42.2001H48.3V40.6001H46.7V42.2001Z" fill="#6B5943"/>
<path d="M48.3002 34.2V32.6V31V29.4H46.7002V27.8H45.0002V26.2H43.3002H41.7002V24.6H40.0002H39.2002V23H37.5002H35.8002H34.2002H32.5002H30.8002H29.2002H27.5002H25.8002V24.6H25.0002H23.3002V23H21.7002H20.0002H18.3002V24.6H16.7002V26.2V27.8V29.4H18.3002V27.8V26.2H20.0002V24.6H21.7002V26.2H23.3002H25.0002H26.7002H28.3002V24.6H29.2002H30.8002H32.5002H34.2002H35.8002H37.5002H38.3002V26.2H40.0002V27.8H41.7002H43.3002V29.4H45.0002V31H46.7002V32.6V34.2V35.8V37.4H48.3002V39V40.6H50.0002V39V37.4V35.8V34.2H48.3002Z" fill="#6B5943"/>
<path d="M41.7 31H36.7V32.6H35V39H36.7V42.2H38.4V43.8H41.7V42.2H43.4V39H45.1V32.6H43.4V31H41.7ZM40 35.8H38.3V34.2H40V35.8ZM43.3 35.8H41.6V34.2H43.3V35.8Z" fill="#6B5943"/>
<path d="M10 31V32.6H8.3H6.7H5V34.2H3.3H1.7V35.8V37.4H0V39H1.7H3.3V37.4V35.8H5H6.7V34.2H8.3H10V35.8H11.7H13.3H15V34.2H13.3H11.7V32.6H13.3V31H11.7H10Z" fill="#6B5943"/>
<path d="M31.6998 30.9999H33.2998V29.3999H31.6998H29.9998H28.2998V30.9999H29.9998H31.6998Z" fill="#6B5943"/>
<path d="M13.2998 29.3999V30.9999H14.9998H16.6998V29.3999H14.9998H13.2998Z" fill="#6B5943"/>
</g>
<defs>
<clipPath id="clip0_542_6132">
<rect width="14" height="8" fill="white" transform="translate(17)"/>
</clipPath>
<clipPath id="clip1_542_6132">
<rect width="50" height="32" fill="white" transform="translate(0 23)"/>
</clipPath>
</defs>
</svg>
