<?xml version="1.0" encoding="UTF-8"?>
<svg id="_圖層_2" xmlns="http://www.w3.org/2000/svg" version="1.1" viewBox="0 0 50 32">
  <!-- Generator: Adobe Illustrator 29.4.0, SVG Export Plug-In . SVG Version: 2.1.0 Build 152)  -->
  <defs>
    <style>
      .st0 {
        fill: #695a48;
      }

      .st1 {
        fill: #6b5943;
      }

      .st2 {
        fill: #f5c3be;
      }

      .st3 {
        fill: #b89870;
      }

      .st4 {
        fill: #685745;
      }

      .st5 {
        fill: #6b5a49;
      }

      .st6 {
        fill: #927654;
      }

      .st7 {
        fill: #e3effe;
      }

      .st8 {
        fill: #564839;
      }

      .st9 {
        fill: #c6a57e;
      }

      .st10 {
        fill: #c4d8f2;
      }

      .st11 {
        fill: #f8c6c3;
      }

      .st12 {
        fill: #564939;
      }

      .st13 {
        fill: #6a5945;
      }

      .st14 {
        fill: #6e5b44;
      }

      .st15 {
        fill: #c2a077;
      }

      .st16 {
        fill: #c5a278;
      }

      .st17 {
        fill: #77634c;
      }

      .st18 {
        fill: #715d46;
      }

      .st19 {
        fill: #e0ebf9;
      }
    </style>
  </defs>
  <g id="_圖層_3">
    <g id="UXxSV5.tif">
      <g>
        <rect class="st15" x="10" y="28.8" width="1.7" height="1.6"/>
        <rect class="st14" x="18.3" y="27.2" width="1.7" height="1.6"/>
        <rect class="st3" x="5" y="24" width="1.7" height="1.6"/>
        <rect class="st17" x="5" y="20.8" width="1.7" height="1.6"/>
        <rect class="st0" x="8.3" y="19.2" width="1.7" height="1.6"/>
        <rect class="st13" x="48.3" y="17.6" width="1.7" height="1.6"/>
        <rect class="st19" x="5" y="17.6" width="1.7" height="1.6"/>
        <rect class="st5" y="17.6" width="1.7" height="1.6"/>
        <rect class="st4" y="16" width="1.7" height="1.6"/>
        <rect class="st9" x="15" y="12.8" width="1.7" height="1.6"/>
        <g>
          <polygon class="st10" points="3.3 19.2 1.7 19.2 1.7 20.8 3.3 20.8 5 20.8 6.7 20.8 6.7 19.2 5 19.2 3.3 19.2"/>
          <polygon class="st10" points="8.3 17.6 6.7 17.6 6.7 19.2 8.3 19.2 10 19.2 10 17.6 8.3 17.6"/>
          <polygon class="st10" points="13.3 16 13.3 17.6 11.7 17.6 11.7 19.2 10 19.2 10 20.8 11.7 20.8 13.3 20.8 15 20.8 15 19.2 15 17.6 15 16 13.3 16"/>
          <rect class="st10" x="3.3" y="14.4" width="1.7" height="1.6"/>
          <rect class="st10" x="5" y="12.8" width="1.7" height="1.6"/>
        </g>
        <rect class="st8" x="41.7" y="11.2" width="1.7" height="1.6"/>
        <rect class="st12" x="38.3" y="11.2" width="1.7" height="1.6"/>
        <g>
          <polygon class="st7" points="13.3 12.8 11.7 12.8 10 12.8 10 11.2 8.3 11.2 6.7 11.2 6.7 12.8 6.7 14.4 5 14.4 5 16 3.3 16 1.7 16 1.7 17.6 1.7 19.2 3.3 19.2 5 19.2 5 17.6 6.7 17.6 8.3 17.6 10 17.6 10 19.2 11.7 19.2 11.7 17.6 13.3 17.6 13.3 16 15 16 15 14.4 15 12.8 13.3 12.8"/>
          <rect class="st7" x="3.3" y="12.8" width="1.7" height="1.6"/>
        </g>
        <rect class="st11" x="28.3" y="9.6" width="1.7" height="1.6"/>
        <rect class="st11" x="26.7" y="9.6" width="1.7" height="1.6"/>
        <rect class="st2" x="25" y="9.6" width="1.7" height="1.6"/>
        <rect class="st18" x="23.3" y="3.2" width="1.7" height="1.6"/>
        <path class="st16" d="M46.7,14.4v-6.4h-1.7v-1.6h-1.7v-1.6h-3.3v-1.6h-1.7v-1.6h-10v1.6h-3.3v1.6h-3.3v1.6h-5v1.6h-3.3v1.6h-1.7v1.6h3.3v1.6h1.7v1.6h-1.7v8h-6.7v-1.6h-1.7v1.6h-1.7v1.6h1.7v3.2h1.7v1.6h3.3v1.6h3.3v-4.8h3.3v1.6h1.7v1.6h10v-1.6h8.3v-3.2h6.7v-1.6h1.7v-4.8h1.7v-3.2h-1.7,0ZM30,11.2h-5v-1.6h5v1.6ZM33.3,8h-5v-1.6h5v1.6ZM45,11.2v4.8h-1.7v3.2h-1.7v1.6h-3.3v-1.6h-1.7v-3.2h-1.7v-6.4h1.7v-1.6h6.7v1.6h1.7v1.6Z"/>
        <g>
          <polygon class="st6" points="33.3 27.2 31.7 27.2 30 27.2 30 28.8 28.3 28.8 28.3 30.4 30 30.4 31.7 30.4 33.3 30.4 35 30.4 35 28.8 36.7 28.8 36.7 27.2 35 27.2 33.3 27.2"/>
          <polygon class="st6" points="18.3 27.2 16.7 27.2 15 27.2 15 28.8 15 30.4 16.7 30.4 18.3 30.4 20 30.4 20 28.8 18.3 28.8 18.3 27.2"/>
          <polygon class="st6" points="40 25.6 38.3 25.6 38.3 27.2 38.3 28.8 40 28.8 41.7 28.8 41.7 27.2 41.7 25.6 40 25.6"/>
          <polygon class="st6" points="21.7 1.6 20 1.6 20 3.2 18.3 3.2 18.3 4.8 18.3 4.8 18.3 6.4 20 6.4 21.7 6.4 21.7 4.8 23.3 4.8 23.3 3.2 21.7 3.2 21.7 1.6"/>
        </g>
        <g>
          <polygon class="st1" points="31.7 30.4 30 30.4 28.3 30.4 28.3 32 30 32 31.7 32 33.3 32 35 32 35 30.4 33.3 30.4 31.7 30.4"/>
          <polygon class="st1" points="26.7 28.8 25 28.8 23.3 28.8 21.7 28.8 20 28.8 20 30.4 18.3 30.4 16.7 30.4 15 30.4 13.3 30.4 11.7 30.4 10 30.4 10 32 11.7 32 13.3 32 15 32 16.7 32 18.3 32 20 32 21.7 32 21.7 30.4 23.3 30.4 25 30.4 26.7 30.4 28.3 30.4 28.3 28.8 26.7 28.8"/>
          <polygon class="st1" points="8.3 28.8 8.3 27.2 6.7 27.2 6.7 25.6 5 25.6 5 24 5 22.4 5 20.8 3.3 20.8 1.7 20.8 1.7 22.4 3.3 22.4 3.3 24 3.3 25.6 3.3 27.2 5 27.2 5 28.8 6.7 28.8 6.7 30.4 8.3 30.4 10 30.4 10 28.8 8.3 28.8"/>
          <polygon class="st1" points="15 27.2 16.7 27.2 18.3 27.2 18.3 25.6 16.7 25.6 15 25.6 15 27.2"/>
          <polygon class="st1" points="41.7 24 40 24 38.3 24 38.3 25.6 40 25.6 41.7 25.6 41.7 27.2 41.7 28.8 40 28.8 38.3 28.8 38.3 27.2 36.7 27.2 36.7 28.8 35 28.8 35 30.4 36.7 30.4 38.3 30.4 40 30.4 41.7 30.4 43.3 30.4 43.3 28.8 43.3 27.2 45 27.2 45 25.6 45 24 43.3 24 41.7 24"/>
          <polygon class="st1" points="10 22.4 11.7 22.4 13.3 22.4 15 22.4 15 20.8 13.3 20.8 11.7 20.8 10 20.8 8.3 20.8 8.3 22.4 10 22.4"/>
          <rect class="st1" x="6.7" y="19.2" width="1.7" height="1.6"/>
          <rect class="st1" y="19.2" width="1.7" height="1.6"/>
          <polygon class="st1" points="46.7 19.2 46.7 20.8 46.7 22.4 45 22.4 45 24 46.7 24 48.3 24 48.3 22.4 48.3 20.8 50 20.8 50 19.2 48.3 19.2 48.3 17.6 46.7 17.6 46.7 19.2"/>
          <polygon class="st1" points="48.3 11.2 48.3 9.6 48.3 8 48.3 6.4 46.7 6.4 46.7 4.8 45 4.8 45 3.2 43.3 3.2 41.7 3.2 41.7 1.6 40 1.6 39.2 1.6 39.2 0 37.5 0 35.8 0 34.2 0 32.5 0 30.8 0 29.2 0 27.5 0 25.8 0 25.8 1.6 25 1.6 23.3 1.6 23.3 0 21.7 0 20 0 18.3 0 18.3 1.6 16.7 1.6 16.7 3.2 16.7 4.8 16.7 6.4 18.3 6.4 18.3 4.8 18.3 3.2 20 3.2 20 1.6 21.7 1.6 21.7 3.2 23.3 3.2 25 3.2 26.7 3.2 28.3 3.2 28.3 1.6 29.2 1.6 30.8 1.6 32.5 1.6 34.2 1.6 35.8 1.6 37.5 1.6 38.3 1.6 38.3 3.2 40 3.2 40 4.8 41.7 4.8 43.3 4.8 43.3 6.4 45 6.4 45 8 46.7 8 46.7 9.6 46.7 11.2 46.7 12.8 46.7 14.4 48.3 14.4 48.3 16 48.3 17.6 50 17.6 50 16 50 14.4 50 12.8 50 11.2 48.3 11.2"/>
          <path class="st1" d="M41.7,8h-5v1.6h-1.7v6.4h1.7v3.2h1.7v1.6h3.3v-1.6h1.7v-3.2h1.7v-6.4h-1.7v-1.6h-1.7ZM40,12.8h-1.7v-1.6h1.7v1.6ZM43.3,12.8h-1.7v-1.6h1.7v1.6Z"/>
          <polygon class="st1" points="10 8 10 9.6 8.3 9.6 6.7 9.6 5 9.6 5 11.2 3.3 11.2 1.7 11.2 1.7 12.8 1.7 14.4 0 14.4 0 16 1.7 16 3.3 16 3.3 14.4 3.3 12.8 5 12.8 6.7 12.8 6.7 11.2 8.3 11.2 10 11.2 10 12.8 11.7 12.8 13.3 12.8 15 12.8 15 11.2 13.3 11.2 11.7 11.2 11.7 9.6 13.3 9.6 13.3 8 11.7 8 10 8"/>
          <polygon class="st1" points="31.7 8 33.3 8 33.3 6.4 31.7 6.4 30 6.4 28.3 6.4 28.3 8 30 8 31.7 8"/>
          <polygon class="st1" points="13.3 6.4 13.3 8 15 8 16.7 8 16.7 6.4 15 6.4 13.3 6.4"/>
        </g>
      </g>
    </g>
  </g>
</svg>