<svg width="160" height="160" viewBox="0 0 160 160" fill="none" xmlns="http://www.w3.org/2000/svg">
<g clip-path="url(#clip0_547_6920)">
<rect x="20" width="10" height="10" fill="#51423E"/>
<rect x="30" width="10" height="10" fill="#51423E"/>
<rect x="40" width="10" height="10" fill="#51423E"/>
<rect x="50" width="10" height="10" fill="#51423E"/>
<rect x="60" width="10" height="10" fill="#51423E"/>
<rect x="70" width="10" height="10" fill="#51423E"/>
<rect x="80" width="10" height="10" fill="#51423E"/>
<rect x="90" width="10" height="10" fill="#51423E"/>
<rect x="100" width="10" height="10" fill="#51423E"/>
<rect x="110" width="10" height="10" fill="#51423E"/>
<rect x="120" width="10" height="10" fill="#51423E"/>
<rect x="130" width="10" height="10" fill="#51423E"/>
<rect x="10" y="10" width="10" height="10" fill="#51423E"/>
<rect x="20" y="10" width="10" height="10" fill="#E0CFC0"/>
<rect x="30" y="10" width="10" height="10" fill="white"/>
<rect x="40" y="10" width="10" height="10" fill="white"/>
<rect x="50" y="10" width="10" height="10" fill="white"/>
<rect x="60" y="10" width="10" height="10" fill="white"/>
<rect x="70" y="10" width="10" height="10" fill="white"/>
<rect x="80" y="10" width="10" height="10" fill="white"/>
<rect x="90" y="10" width="10" height="10" fill="white"/>
<rect x="100" y="10" width="10" height="10" fill="white"/>
<rect x="110" y="10" width="10" height="10" fill="white"/>
<rect x="120" y="10" width="10" height="10" fill="white"/>
<rect x="120" y="30" width="10" height="10" fill="white"/>
<rect x="130" y="60" width="10" height="10" fill="white"/>
<rect x="120" y="70" width="10" height="10" fill="white"/>
<rect x="110" y="80" width="10" height="10" fill="white"/>
<rect x="100" y="80" width="10" height="10" fill="white"/>
<rect x="90" y="80" width="10" height="10" fill="white"/>
<rect x="60" y="80" width="10" height="10" fill="white"/>
<rect x="50" y="80" width="10" height="10" fill="white"/>
<rect x="40" y="80" width="10" height="10" fill="white"/>
<rect x="30" y="70" width="10" height="10" fill="white"/>
<rect x="20" y="60" width="10" height="10" fill="white"/>
<rect x="130" y="10" width="10" height="10" fill="#E0CFC0"/>
<rect x="140" y="10" width="10" height="10" fill="#51423E"/>
<rect y="20" width="10" height="10" fill="#51423E"/>
<rect x="10" y="20" width="10" height="10" fill="#E0CFC0"/>
<rect x="20" y="20" width="10" height="10" fill="#FFFAF4"/>
<rect x="30" y="20" width="10" height="10" fill="#FFFAF4"/>
<rect x="40" y="20" width="10" height="10" fill="#FFFAF4"/>
<rect x="50" y="20" width="10" height="10" fill="#FFFAF4"/>
<rect x="60" y="20" width="10" height="10" fill="#FFFAF4"/>
<rect x="70" y="20" width="10" height="10" fill="#FFFAF4"/>
<rect x="80" y="20" width="10" height="10" fill="#FFFAF4"/>
<rect x="90" y="20" width="10" height="10" fill="#FFFAF4"/>
<rect x="100" y="20" width="10" height="10" fill="#FFFAF4"/>
<rect x="110" y="20" width="10" height="10" fill="#FFFAF4"/>
<rect x="120" y="20" width="10" height="10" fill="#FFFAF4"/>
<rect x="130" y="20" width="10" height="10" fill="#FFFAF4"/>
<rect x="140" y="20" width="10" height="10" fill="#E0CFC0"/>
<rect x="150" y="20" width="10" height="10" fill="#51423E"/>
<rect y="30" width="10" height="10" fill="#51423E"/>
<rect x="10" y="30" width="10" height="10" fill="#FFFAF4"/>
<rect x="20" y="30" width="10" height="10" fill="#FFFAF4"/>
<rect x="40" y="30" width="10" height="10" fill="#51423E"/>
<rect x="50" y="30" width="10" height="10" fill="#51423E"/>
<rect x="60" y="30" width="10" height="10" fill="#51423E"/>
<rect x="70" y="30" width="10" height="10" fill="#51423E"/>
<rect x="80" y="30" width="10" height="10" fill="#51423E"/>
<rect x="90" y="30" width="10" height="10" fill="#51423E"/>
<rect x="100" y="30" width="10" height="10" fill="#51423E"/>
<rect x="110" y="30" width="10" height="10" fill="#51423E"/>
<rect x="130" y="30" width="10" height="10" fill="#FFFAF4"/>
<rect x="140" y="30" width="10" height="10" fill="#FFFAF4"/>
<rect x="150" y="30" width="10" height="10" fill="#51423E"/>
<rect y="40" width="10" height="10" fill="#51423E"/>
<rect x="10" y="40" width="10" height="10" fill="#FFFAF4"/>
<rect x="20" y="40" width="10" height="10" fill="#51423E"/>
<rect x="30" y="40" width="10" height="10" fill="#51423E"/>
<rect x="40" y="40" width="10" height="10" fill="#51423E"/>
<rect x="50" y="40" width="10" height="10" fill="#F8D365"/>
<rect x="60" y="40" width="10" height="10" fill="#FFF7E0"/>
<rect x="70" y="40" width="10" height="10" fill="#FFF7E0"/>
<rect x="80" y="40" width="10" height="10" fill="#FFF7E0"/>
<rect x="90" y="40" width="10" height="10" fill="#F9E468"/>
<rect x="100" y="40" width="10" height="10" fill="#F8D365"/>
<rect x="110" y="40" width="10" height="10" fill="#51423E"/>
<rect x="120" y="40" width="10" height="10" fill="#51423E"/>
<rect x="130" y="40" width="10" height="10" fill="#51423E"/>
<rect x="140" y="40" width="10" height="10" fill="#FFFAF4"/>
<rect x="150" y="40" width="10" height="10" fill="#51423E"/>
<rect y="50" width="10" height="10" fill="#51423E"/>
<rect x="10" y="50" width="10" height="10" fill="#FFFAF4"/>
<rect x="20" y="50" width="10" height="10" fill="#51423E"/>
<rect x="30" y="50" width="10" height="10" fill="#FFFAF4"/>
<rect x="40" y="50" width="10" height="10" fill="#51423E"/>
<rect x="50" y="50" width="10" height="10" fill="#F8D365"/>
<rect x="60" y="50" width="10" height="10" fill="#F8D365"/>
<rect x="70" y="50" width="10" height="10" fill="#F9E468"/>
<rect x="80" y="50" width="10" height="10" fill="#F9E468"/>
<rect x="90" y="50" width="10" height="10" fill="#FFF7E0"/>
<rect x="100" y="50" width="10" height="10" fill="#F8D365"/>
<rect x="110" y="50" width="10" height="10" fill="#51423E"/>
<rect x="120" y="50" width="10" height="10" fill="#FFFAF4"/>
<rect x="130" y="50" width="10" height="10" fill="#51423E"/>
<rect x="140" y="50" width="10" height="10" fill="#FFFAF4"/>
<rect x="150" y="50" width="10" height="10" fill="#51423E"/>
<rect y="60" width="10" height="10" fill="#51423E"/>
<rect x="10" y="60" width="10" height="10" fill="#FFFAF4"/>
<rect x="30" y="60" width="10" height="10" fill="#51423E"/>
<rect x="40" y="60" width="10" height="10" fill="#FFFAF4"/>
<rect x="50" y="60" width="10" height="10" fill="#51423E"/>
<rect x="60" y="60" width="10" height="10" fill="#F5BF64"/>
<rect x="70" y="60" width="10" height="10" fill="#F9E468"/>
<rect x="80" y="60" width="10" height="10" fill="#F9E468"/>
<rect x="90" y="60" width="10" height="10" fill="#FFF7E0"/>
<rect x="100" y="60" width="10" height="10" fill="#51423E"/>
<rect x="110" y="60" width="10" height="10" fill="#FFFAF4"/>
<rect x="120" y="60" width="10" height="10" fill="#51423E"/>
<rect x="140" y="60" width="10" height="10" fill="#FFFAF4"/>
<rect x="150" y="60" width="10" height="10" fill="#51423E"/>
<rect y="70" width="10" height="10" fill="#51423E"/>
<rect x="10" y="70" width="10" height="10" fill="#E0CFC0"/>
<rect x="20" y="70" width="10" height="10" fill="#FFFAF4"/>
<rect x="40" y="70" width="10" height="10" fill="#51423E"/>
<rect x="50" y="70" width="10" height="10" fill="#51423E"/>
<rect x="60" y="70" width="10" height="10" fill="#51423E"/>
<rect x="70" y="70" width="10" height="10" fill="#F5BF64"/>
<rect x="80" y="70" width="10" height="10" fill="#F5BF64"/>
<rect x="90" y="70" width="10" height="10" fill="#51423E"/>
<rect x="100" y="70" width="10" height="10" fill="#51423E"/>
<rect x="110" y="70" width="10" height="10" fill="#51423E"/>
<rect x="130" y="70" width="10" height="10" fill="#FFFAF4"/>
<rect x="140" y="70" width="10" height="10" fill="#E0CFC0"/>
<rect x="150" y="70" width="10" height="10" fill="#51423E"/>
<rect y="80" width="10" height="10" fill="#51423E"/>
<rect x="10" y="80" width="10" height="10" fill="#FBEDDC"/>
<rect x="20" y="80" width="10" height="10" fill="#E0CFC0"/>
<rect x="30" y="80" width="10" height="10" fill="#FFFAF4"/>
<rect x="70" y="80" width="10" height="10" fill="#51423E"/>
<rect x="80" y="80" width="10" height="10" fill="#51423E"/>
<rect x="120" y="80" width="10" height="10" fill="#FFFAF4"/>
<rect x="130" y="80" width="10" height="10" fill="#E0CFC0"/>
<rect x="140" y="80" width="10" height="10" fill="#FBEDDC"/>
<rect x="150" y="80" width="10" height="10" fill="#51423E"/>
<rect y="90" width="10" height="10" fill="#51423E"/>
<rect x="10" y="90" width="10" height="10" fill="#FBEDDC"/>
<rect x="20" y="90" width="10" height="10" fill="#FBEDDC"/>
<rect x="30" y="90" width="10" height="10" fill="#FBEDDC"/>
<rect x="40" y="90" width="10" height="10" fill="#FBEDDC"/>
<rect x="50" y="90" width="10" height="10" fill="#FBEDDC"/>
<rect x="60" y="90" width="10" height="10" fill="#FBEDDC"/>
<rect x="70" y="90" width="10" height="10" fill="#51423E"/>
<rect x="80" y="90" width="10" height="10" fill="#51423E"/>
<rect x="90" y="90" width="10" height="10" fill="#FBEDDC"/>
<rect x="100" y="90" width="10" height="10" fill="#FBEDDC"/>
<rect x="110" y="90" width="10" height="10" fill="#FBEDDC"/>
<rect x="120" y="90" width="10" height="10" fill="#FBEDDC"/>
<rect x="130" y="90" width="10" height="10" fill="#FBEDDC"/>
<rect x="140" y="90" width="10" height="10" fill="#FBEDDC"/>
<rect x="150" y="90" width="10" height="10" fill="#51423E"/>
<rect y="100" width="10" height="10" fill="#51423E"/>
<rect x="10" y="100" width="10" height="10" fill="#FBEDDC"/>
<rect x="20" y="100" width="10" height="10" fill="#FBEDDC"/>
<rect x="30" y="100" width="10" height="10" fill="#E0CFC0"/>
<rect x="40" y="100" width="10" height="10" fill="#E0CFC0"/>
<rect x="50" y="100" width="10" height="10" fill="#E0CFC0"/>
<rect x="60" y="100" width="10" height="10" fill="#51423E"/>
<rect x="70" y="100" width="10" height="10" fill="#51423E"/>
<rect x="80" y="100" width="10" height="10" fill="#51423E"/>
<rect x="90" y="100" width="10" height="10" fill="#51423E"/>
<rect x="100" y="100" width="10" height="10" fill="#E0CFC0"/>
<rect x="110" y="100" width="10" height="10" fill="#E0CFC0"/>
<rect x="120" y="100" width="10" height="10" fill="#E0CFC0"/>
<rect x="130" y="100" width="10" height="10" fill="#FBEDDC"/>
<rect x="140" y="100" width="10" height="10" fill="#FBEDDC"/>
<rect x="150" y="100" width="10" height="10" fill="#51423E"/>
<rect y="110" width="10" height="10" fill="#51423E"/>
<rect x="10" y="110" width="10" height="10" fill="#FBEDDC"/>
<rect x="20" y="110" width="10" height="10" fill="#E0CFC0"/>
<rect x="30" y="110" width="10" height="10" fill="#E0CFC0"/>
<rect x="40" y="110" width="10" height="10" fill="#E0CFC0"/>
<rect x="50" y="110" width="10" height="10" fill="#51423E"/>
<rect x="60" y="110" width="10" height="10" fill="#F7E267"/>
<rect x="70" y="110" width="10" height="10" fill="#F7E267"/>
<rect x="80" y="110" width="10" height="10" fill="#F7E267"/>
<rect x="90" y="110" width="10" height="10" fill="#F7E267"/>
<rect x="100" y="110" width="10" height="10" fill="#51423E"/>
<rect x="110" y="110" width="10" height="10" fill="#E0CFC0"/>
<rect x="120" y="110" width="10" height="10" fill="#E0CFC0"/>
<rect x="130" y="110" width="10" height="10" fill="#E0CFC0"/>
<rect x="140" y="110" width="10" height="10" fill="#FBEDDC"/>
<rect x="150" y="110" width="10" height="10" fill="#51423E"/>
<rect y="120" width="10" height="10" fill="#51423E"/>
<rect x="10" y="120" width="10" height="10" fill="#FBEDDC"/>
<rect x="20" y="120" width="10" height="10" fill="#FBEDDC"/>
<rect x="30" y="120" width="10" height="10" fill="#E0CFC0"/>
<rect x="40" y="120" width="10" height="10" fill="#51423E"/>
<rect x="50" y="120" width="10" height="10" fill="#51423E"/>
<rect x="60" y="120" width="10" height="10" fill="#51423E"/>
<rect x="70" y="120" width="10" height="10" fill="#51423E"/>
<rect x="80" y="120" width="10" height="10" fill="#51423E"/>
<rect x="90" y="120" width="10" height="10" fill="#51423E"/>
<rect x="100" y="120" width="10" height="10" fill="#51423E"/>
<rect x="110" y="120" width="10" height="10" fill="#51423E"/>
<rect x="120" y="120" width="10" height="10" fill="#E0CFC0"/>
<rect x="130" y="120" width="10" height="10" fill="#FBEDDC"/>
<rect x="140" y="120" width="10" height="10" fill="#FBEDDC"/>
<rect x="150" y="120" width="10" height="10" fill="#51423E"/>
<rect y="130" width="10" height="10" fill="#51423E"/>
<rect x="10" y="130" width="10" height="10" fill="#E0CFC0"/>
<rect x="20" y="130" width="10" height="10" fill="#FBEDDC"/>
<rect x="30" y="130" width="10" height="10" fill="#FBEDDC"/>
<rect x="40" y="130" width="10" height="10" fill="#FBEDDC"/>
<rect x="50" y="130" width="10" height="10" fill="#FBEDDC"/>
<rect x="60" y="130" width="10" height="10" fill="#FBEDDC"/>
<rect x="70" y="130" width="10" height="10" fill="#FBEDDC"/>
<rect x="80" y="130" width="10" height="10" fill="#FBEDDC"/>
<rect x="90" y="130" width="10" height="10" fill="#FBEDDC"/>
<rect x="100" y="130" width="10" height="10" fill="#FBEDDC"/>
<rect x="110" y="130" width="10" height="10" fill="#FBEDDC"/>
<rect x="120" y="130" width="10" height="10" fill="#FBEDDC"/>
<rect x="130" y="130" width="10" height="10" fill="#FBEDDC"/>
<rect x="140" y="130" width="10" height="10" fill="#E0CFC0"/>
<rect x="150" y="130" width="10" height="10" fill="#51423E"/>
<rect x="10" y="140" width="10" height="10" fill="#51423E"/>
<rect x="20" y="140" width="10" height="10" fill="#E0CFC0"/>
<rect x="30" y="140" width="10" height="10" fill="#E0CFC0"/>
<rect x="40" y="140" width="10" height="10" fill="#E0CFC0"/>
<rect x="50" y="140" width="10" height="10" fill="#E0CFC0"/>
<rect x="60" y="140" width="10" height="10" fill="#E0CFC0"/>
<rect x="70" y="140" width="10" height="10" fill="#E0CFC0"/>
<rect x="80" y="140" width="10" height="10" fill="#E0CFC0"/>
<rect x="90" y="140" width="10" height="10" fill="#E0CFC0"/>
<rect x="100" y="140" width="10" height="10" fill="#E0CFC0"/>
<rect x="110" y="140" width="10" height="10" fill="#E0CFC0"/>
<rect x="120" y="140" width="10" height="10" fill="#E0CFC0"/>
<rect x="130" y="140" width="10" height="10" fill="#E0CFC0"/>
<rect x="140" y="140" width="10" height="10" fill="#51423E"/>
<rect x="20" y="150" width="10" height="10" fill="#51423E"/>
<rect x="30" y="150" width="10" height="10" fill="#51423E"/>
<rect x="40" y="150" width="10" height="10" fill="#51423E"/>
<rect x="50" y="150" width="10" height="10" fill="#51423E"/>
<rect x="60" y="150" width="10" height="10" fill="#51423E"/>
<rect x="70" y="150" width="10" height="10" fill="#51423E"/>
<rect x="80" y="150" width="10" height="10" fill="#51423E"/>
<rect x="90" y="150" width="10" height="10" fill="#51423E"/>
<rect x="100" y="150" width="10" height="10" fill="#51423E"/>
<rect x="110" y="150" width="10" height="10" fill="#51423E"/>
<rect x="120" y="150" width="10" height="10" fill="#51423E"/>
<rect x="130" y="150" width="10" height="10" fill="#51423E"/>
</g>
<defs>
<clipPath id="clip0_547_6920">
<rect width="160" height="160" fill="white"/>
</clipPath>
</defs>
</svg>
